name rise49.25peak52.1432fall72.8391.mot
datacolumns 19
datarows 27
range 13.42828300000000 13.47161000000000
endheader
time	ground_force1_vx	ground_force1_vy	ground_force1_vz	ground_force1_px	ground_force1_py	ground_force1_pz	ground_force2_vx	ground_force2_vy	ground_force2_vz	ground_force2_px	ground_force2_py	ground_force2_pz	ground_torque1_x	ground_torque1_y	ground_torque1_z	ground_torque2_x	ground_torque2_y	ground_torque2_z	
13.42828300000000	59.76020900000000	790.17665299999999	61.37341800000000	0.31087300000000	0.00000000000000	0.11307300000000	0.00000000000000	0.00000000000000	0.00000000000000	0.00000000000000	0.00000000000000	0.00000000000000	0.00000000000000	23.77119000000000	0.00000000000000	0.00000000000000	0.00000000000000	0.00000000000000	
13.42995100000000	59.25991900000000	794.10380099999998	61.54198600000000	0.31029900000000	0.00000000000000	0.11302300000000	0.00000000000000	0.00000000000000	0.00000000000000	0.00000000000000	0.00000000000000	0.00000000000000	0.00000000000000	23.86399000000000	0.00000000000000	0.00000000000000	0.00000000000000	0.00000000000000	
13.43162000000000	58.75038500000000	797.83849299999997	61.70536100000000	0.30973900000000	0.00000000000000	0.11297300000000	0.00000000000000	0.00000000000000	0.00000000000000	0.00000000000000	0.00000000000000	0.00000000000000	0.00000000000000	23.95628600000000	0.00000000000000	0.00000000000000	0.00000000000000	0.00000000000000	
13.43328400000000	58.23185400000000	801.37694499999998	61.86326600000000	0.30919200000000	0.00000000000000	0.11292400000000	0.00000000000000	0.00000000000000	0.00000000000000	0.00000000000000	0.00000000000000	0.00000000000000	0.00000000000000	24.04783000000000	0.00000000000000	0.00000000000000	0.00000000000000	0.00000000000000	
13.43494900000000	57.70454900000000	804.71572300000003	62.01537700000000	0.30865600000000	0.00000000000000	0.11287600000000	0.00000000000000	0.00000000000000	0.00000000000000	0.00000000000000	0.00000000000000	0.00000000000000	0.00000000000000	24.13834200000000	0.00000000000000	0.00000000000000	0.00000000000000	0.00000000000000	
13.43661300000000	57.16867100000000	807.85175200000003	62.16131600000000	0.30812900000000	0.00000000000000	0.11282900000000	0.00000000000000	0.00000000000000	0.00000000000000	0.00000000000000	0.00000000000000	0.00000000000000	0.00000000000000	24.22750800000000	0.00000000000000	0.00000000000000	0.00000000000000	0.00000000000000	
13.43828500000000	56.62440600000000	810.78233699999998	62.30066500000000	0.30760900000000	0.00000000000000	0.11278300000000	0.00000000000000	0.00000000000000	0.00000000000000	0.00000000000000	0.00000000000000	0.00000000000000	0.00000000000000	24.31498800000000	0.00000000000000	0.00000000000000	0.00000000000000	0.00000000000000	
13.43994300000000	56.07192200000000	813.50517100000002	62.43296700000000	0.30709300000000	0.00000000000000	0.11273700000000	0.00000000000000	0.00000000000000	0.00000000000000	0.00000000000000	0.00000000000000	0.00000000000000	0.00000000000000	24.40041700000000	0.00000000000000	0.00000000000000	0.00000000000000	0.00000000000000	
13.44161300000000	55.51137800000000	816.01835100000005	62.55773000000000	0.30657900000000	0.00000000000000	0.11269300000000	0.00000000000000	0.00000000000000	0.00000000000000	0.00000000000000	0.00000000000000	0.00000000000000	0.00000000000000	24.48340700000000	0.00000000000000	0.00000000000000	0.00000000000000	0.00000000000000	
13.44327900000000	54.94292300000000	818.32038299999999	62.67443600000000	0.30606500000000	0.00000000000000	0.11265000000000	0.00000000000000	0.00000000000000	0.00000000000000	0.00000000000000	0.00000000000000	0.00000000000000	0.00000000000000	24.56355100000000	0.00000000000000	0.00000000000000	0.00000000000000	0.00000000000000	
13.44495000000000	54.36670200000000	820.41019400000005	62.78254600000000	0.30554800000000	0.00000000000000	0.11260900000000	0.00000000000000	0.00000000000000	0.00000000000000	0.00000000000000	0.00000000000000	0.00000000000000	0.00000000000000	24.64042700000000	0.00000000000000	0.00000000000000	0.00000000000000	0.00000000000000	
13.44661100000000	53.78285700000000	822.28713700000003	62.88150000000000	0.30502800000000	0.00000000000000	0.11256800000000	0.00000000000000	0.00000000000000	0.00000000000000	0.00000000000000	0.00000000000000	0.00000000000000	0.00000000000000	24.71360200000000	0.00000000000000	0.00000000000000	0.00000000000000	0.00000000000000	
13.44828400000000	53.19153100000000	823.95099700000003	62.97073200000000	0.30450000000000	0.00000000000000	0.11252900000000	0.00000000000000	0.00000000000000	0.00000000000000	0.00000000000000	0.00000000000000	0.00000000000000	0.00000000000000	24.78263200000000	0.00000000000000	0.00000000000000	0.00000000000000	0.00000000000000	
13.44994300000000	52.59287000000000	825.40199099999995	63.04966900000000	0.30396300000000	0.00000000000000	0.11249200000000	0.00000000000000	0.00000000000000	0.00000000000000	0.00000000000000	0.00000000000000	0.00000000000000	0.00000000000000	24.84707200000000	0.00000000000000	0.00000000000000	0.00000000000000	0.00000000000000	
13.45161100000000	51.98702700000000	826.64077499999996	63.11773600000000	0.30341500000000	0.00000000000000	0.11245500000000	0.00000000000000	0.00000000000000	0.00000000000000	0.00000000000000	0.00000000000000	0.00000000000000	0.00000000000000	24.90647300000000	0.00000000000000	0.00000000000000	0.00000000000000	0.00000000000000	
13.45327600000000	51.37416600000000	827.66843800000004	63.17436800000000	0.30285400000000	0.00000000000000	0.11242100000000	0.00000000000000	0.00000000000000	0.00000000000000	0.00000000000000	0.00000000000000	0.00000000000000	0.00000000000000	24.96038800000000	0.00000000000000	0.00000000000000	0.00000000000000	0.00000000000000	
13.45494700000000	50.75445800000000	828.48650299999997	63.21900800000000	0.30227700000000	0.00000000000000	0.11238700000000	0.00000000000000	0.00000000000000	0.00000000000000	0.00000000000000	0.00000000000000	0.00000000000000	0.00000000000000	25.00837800000000	0.00000000000000	0.00000000000000	0.00000000000000	0.00000000000000	
13.45661300000000	50.12809100000000	829.09692399999994	63.25111700000000	0.30168300000000	0.00000000000000	0.11235500000000	0.00000000000000	0.00000000000000	0.00000000000000	0.00000000000000	0.00000000000000	0.00000000000000	0.00000000000000	25.05001200000000	0.00000000000000	0.00000000000000	0.00000000000000	0.00000000000000	
13.45828000000000	49.49526900000000	829.50207799999998	63.27017800000000	0.30106900000000	0.00000000000000	0.11232500000000	0.00000000000000	0.00000000000000	0.00000000000000	0.00000000000000	0.00000000000000	0.00000000000000	0.00000000000000	25.08487200000000	0.00000000000000	0.00000000000000	0.00000000000000	0.00000000000000	
13.45994800000000	48.85621200000000	829.70475899999997	63.27570000000000	0.30043300000000	0.00000000000000	0.11229700000000	0.00000000000000	0.00000000000000	0.00000000000000	0.00000000000000	0.00000000000000	0.00000000000000	0.00000000000000	25.11255700000000	0.00000000000000	0.00000000000000	0.00000000000000	0.00000000000000	
13.46161400000000	48.21116100000000	829.70817199999999	63.26722100000000	0.29977500000000	0.00000000000000	0.11227000000000	0.00000000000000	0.00000000000000	0.00000000000000	0.00000000000000	0.00000000000000	0.00000000000000	0.00000000000000	25.13268500000000	0.00000000000000	0.00000000000000	0.00000000000000	0.00000000000000	
13.46327600000000	47.56037700000000	829.51591900000005	63.24431800000000	0.29909100000000	0.00000000000000	0.11224400000000	0.00000000000000	0.00000000000000	0.00000000000000	0.00000000000000	0.00000000000000	0.00000000000000	0.00000000000000	25.14489600000000	0.00000000000000	0.00000000000000	0.00000000000000	0.00000000000000	
13.46494400000000	46.90414500000000	829.13198899999998	63.20660500000000	0.29838000000000	0.00000000000000	0.11222000000000	0.00000000000000	0.00000000000000	0.00000000000000	0.00000000000000	0.00000000000000	0.00000000000000	0.00000000000000	25.14885500000000	0.00000000000000	0.00000000000000	0.00000000000000	0.00000000000000	
13.46661700000000	46.24277000000000	828.56074699999999	63.15373700000000	0.29764000000000	0.00000000000000	0.11219800000000	0.00000000000000	0.00000000000000	0.00000000000000	0.00000000000000	0.00000000000000	0.00000000000000	0.00000000000000	25.14425800000000	0.00000000000000	0.00000000000000	0.00000000000000	0.00000000000000	
13.46828300000000	45.57658600000000	827.80691600000000	63.08541800000000	0.29687100000000	0.00000000000000	0.11217700000000	0.00000000000000	0.00000000000000	0.00000000000000	0.00000000000000	0.00000000000000	0.00000000000000	0.00000000000000	25.13082800000000	0.00000000000000	0.00000000000000	0.00000000000000	0.00000000000000	
13.46994900000000	44.90594700000000	826.87556400000005	63.00140000000000	0.29607000000000	0.00000000000000	0.11215800000000	0.00000000000000	0.00000000000000	0.00000000000000	0.00000000000000	0.00000000000000	0.00000000000000	0.00000000000000	25.10832300000000	0.00000000000000	0.00000000000000	0.00000000000000	0.00000000000000	
13.47161000000000	44.23123600000000	825.77208800000005	62.90148500000000	0.29523600000000	0.00000000000000	0.11214100000000	0.00000000000000	0.00000000000000	0.00000000000000	0.00000000000000	0.00000000000000	0.00000000000000	0.00000000000000	25.07653700000000	0.00000000000000	0.00000000000000	0.00000000000000	0.00000000000000	
